<svg width="32" height="32" viewBox="0 0 32 32" fill="none" xmlns="http://www.w3.org/2000/svg">
<path d="M14.833 0.0111885C12.8878 0.180471 11.1311 0.598885 9.5341 1.27601C7.38134 2.1895 5.20942 3.79289 3.74337 5.55598C1.82058 7.86205 0.705875 10.2927 0.19164 13.2855C0.028746 14.2213 0 14.6269 0 15.7864C0 16.9458 0.028746 17.3514 0.19164 18.2873C0.705875 21.2801 1.82058 23.7107 3.74337 26.0168C5.16151 27.7224 7.28552 29.313 9.35524 30.2201C10.7702 30.8429 12.5173 31.306 14.2101 31.5073C14.8904 31.5871 16.6599 31.5871 17.3402 31.5073C19.3748 31.2645 21.3327 30.6896 22.9617 29.8528C24.4086 29.1117 25.7788 28.112 26.9414 26.9526C28.5704 25.3237 29.8543 23.3114 30.6113 21.2002C31.001 20.111 31.3459 18.6194 31.4961 17.3514C31.5759 16.6711 31.5759 14.9016 31.4961 14.2213C31.3811 13.2503 31.1671 12.1995 30.8828 11.2189C30.2983 9.20353 29.2858 7.33184 27.8262 5.57514C26.3505 3.79928 24.1786 2.19269 22.0163 1.27601C20.6365 0.691511 18.9692 0.260321 17.3722 0.0718746C16.9474 0.020771 15.1971 -0.020752 14.833 0.0111885ZM16.6376 1.14186C19.8188 1.3367 22.7317 2.49612 25.2135 4.55306C25.7053 4.96189 26.6252 5.88815 27.0372 6.38322C27.9475 7.48835 28.6758 8.66694 29.2187 9.9094C30.8541 13.6687 30.8541 17.904 29.2187 21.6633C28.2031 23.9918 26.5294 26.0838 24.4565 27.6106C21.1347 30.0572 16.9027 30.9866 12.8335 30.1594C10.4508 29.6739 8.28524 28.6295 6.35287 27.0325C5.87058 26.6332 4.94432 25.7069 4.54187 25.2246C2.94487 23.2987 1.88766 21.114 1.40217 18.728C1.00931 16.7925 1.00931 14.7803 1.40217 12.8447C1.88766 10.4588 2.94487 8.27407 4.54187 6.34809C4.93474 5.87538 5.86419 4.94592 6.3369 4.55306C9.269 2.11923 12.8974 0.918285 16.6376 1.14186Z" fill="url(#paint0_linear_434_3412)"/>
<path d="M18.9213 4.39988C17.5638 4.56916 16.3437 5.1888 15.3057 6.23962C14.1239 7.43737 13.4691 8.83315 12.9645 11.2191C12.7377 12.2827 12.6738 12.5382 12.6227 12.5989C12.5652 12.6691 12.1021 12.8288 11.3898 13.0269C9.87585 13.4453 8.94959 13.819 7.79975 14.4801C7.21845 14.8155 6.89266 15.0423 6.49021 15.4032C5.65338 16.1506 5.04014 17.0385 4.74309 17.9361C4.27996 19.3286 4.55145 20.9288 5.47771 22.2735C5.65658 22.5322 6.04305 22.957 6.09735 22.957C6.11971 22.957 6.11013 22.8229 6.07499 22.5801C6.00472 22.0883 5.99834 21.0981 6.0686 20.6286C6.24427 19.4245 6.69782 18.3321 7.42606 17.3675C7.70393 16.997 7.94348 16.7702 8.43855 16.3997C9.72893 15.4383 10.5274 15.1158 13.5553 14.3236L14.2069 14.1544L14.2804 13.803C14.7435 11.5512 15.0501 10.4876 15.5197 9.52625C16.0978 8.33808 16.9282 7.40863 17.9567 6.80496C19.1704 6.0927 20.3107 5.7733 21.6489 5.7733C22.0354 5.7733 22.5113 5.81163 22.7349 5.85634C22.8754 5.88509 22.8307 5.81801 22.5177 5.54014C21.8853 4.98438 21.1635 4.62346 20.3586 4.46056C20.004 4.3903 19.2694 4.35835 18.9213 4.39988Z" fill="url(#paint1_linear_434_3412)"/>
<path d="M20.2947 6.3991C19.3876 6.56518 18.7871 6.79196 18.1867 7.1944C17.9184 7.37327 17.4744 7.73419 17.3307 7.89069L17.2572 7.97054L17.4584 7.92583C18.5093 7.69905 19.6144 7.60643 20.662 7.66073C21.7352 7.71183 22.3804 7.84598 23.2971 8.2069C23.9167 8.44965 25.0059 9.06609 25.4466 9.41743L25.6447 9.58032L25.6542 9.44617C25.667 9.2705 25.568 9.06289 25.2805 8.67961C24.4661 7.58407 23.1789 6.74724 21.8598 6.45978C21.6266 6.40868 20.4863 6.36396 20.2947 6.3991Z" fill="url(#paint2_linear_434_3412)"/>
<path d="M19.1289 8.4145C18.3304 8.47838 17.8992 8.5742 17.1934 8.84889C16.4204 9.14912 16.2447 9.28327 16.0371 9.72724C15.7113 10.4299 15.5069 11.2476 15.4015 12.2729C15.376 12.5252 15.3632 13.1576 15.3632 14.1286L15.3664 15.601L14.7244 15.6202C12.396 15.6968 10.4828 16.1184 9.20516 16.8435C7.84132 17.6164 7.08753 18.6417 6.77772 20.1557C6.71384 20.4751 6.70425 20.6028 6.70425 21.3279C6.70425 22.1902 6.74897 22.5991 6.88312 23.0686C7.07476 23.7361 7.52192 24.5602 7.93075 25.0105C8.10003 25.1926 8.2789 25.3395 8.30126 25.314C8.30764 25.3076 8.29487 25.2309 8.26932 25.1447C8.24057 25.0585 8.18947 24.8157 8.15114 24.6049C8.09045 24.2695 8.08087 24.1034 8.08087 23.372C8.08087 22.6182 8.08726 22.4873 8.15114 22.1775C8.28529 21.5195 8.39708 21.1969 8.67176 20.6571C9.33931 19.354 10.5754 18.466 12.3129 18.0412C13.0412 17.8656 13.3542 17.8304 14.9671 17.7633L15.4654 17.741L15.491 17.9294C15.5069 18.0348 15.5165 18.6768 15.5165 19.3635C15.5165 20.6859 15.4942 20.9893 15.3376 21.6632C15.0438 22.9376 14.2932 23.9469 13.3126 24.3813C12.7409 24.6368 12.0095 24.6975 11.4122 24.5442C10.7862 24.3813 10.2496 24.0619 9.79924 23.5828C9.25307 23.0079 8.96561 22.3755 8.89853 21.6153L8.87618 21.3438L8.72925 21.6473C8.42582 22.2669 8.3332 22.6725 8.3332 23.388C8.3332 23.9853 8.37152 24.2152 8.54719 24.7167C8.81549 25.4864 9.41916 26.2179 10.026 26.5149C10.5977 26.7928 11.1471 26.9174 11.9264 26.9397C12.396 26.9525 12.5461 26.9461 12.8687 26.8918C13.878 26.7193 14.7883 26.2466 15.5612 25.4992C16.6216 24.4708 17.1774 23.3848 17.4489 21.807C17.5734 21.0755 17.5958 20.6954 17.5958 19.1815L17.5926 17.725L18.027 17.7059C20.266 17.6036 21.32 17.4439 22.6807 17.0032C23.1406 16.8499 23.2332 16.8083 23.559 16.5943C24.399 16.0418 24.9803 15.4828 25.4499 14.7801C26.3282 13.4674 26.5294 11.7842 26.0088 10.0914C25.9577 9.92527 25.9162 9.78473 25.9162 9.77834C25.9162 9.77195 25.9034 9.76557 25.8906 9.76557C25.8779 9.76557 25.8491 9.83264 25.8268 9.91568C25.8044 10.0019 25.7213 10.2702 25.6415 10.513C24.9197 12.7009 23.7251 14.1382 22.0131 14.8728C21.2306 15.2081 20.2532 15.4445 19.4164 15.4956C18.9117 15.5275 17.5096 15.585 17.5 15.5723C17.4936 15.5659 17.4712 15.2241 17.4489 14.8121C17.3052 11.963 17.8098 10.2415 19.065 9.30882C19.6559 8.87124 20.1542 8.71155 20.9527 8.71155C21.205 8.71155 21.4126 8.69877 21.4126 8.68599C21.4126 8.61253 20.6557 8.4688 20.0712 8.42728C19.624 8.39534 19.4036 8.39215 19.1289 8.4145Z" fill="url(#paint3_linear_434_3412)"/>
<defs>
<linearGradient id="paint0_linear_434_3412" x1="3.49618e-09" y1="15.5" x2="32" y2="15" gradientUnits="userSpaceOnUse">
<stop stop-color="#5CA1FF"/>
<stop offset="1" stop-color="#D48EFF"/>
</linearGradient>
<linearGradient id="paint1_linear_434_3412" x1="4.52155" y1="13.5023" x2="23.0683" y2="13.2169" gradientUnits="userSpaceOnUse">
<stop stop-color="#5CA1FF"/>
<stop offset="1" stop-color="#D48EFF"/>
</linearGradient>
<linearGradient id="paint2_linear_434_3412" x1="17.2572" y1="7.95476" x2="25.7612" y2="7.60523" gradientUnits="userSpaceOnUse">
<stop stop-color="#5CA1FF"/>
<stop offset="1" stop-color="#D48EFF"/>
</linearGradient>
<linearGradient id="paint3_linear_434_3412" x1="6.70425" y1="17.5061" x2="26.5676" y2="17.1782" gradientUnits="userSpaceOnUse">
<stop stop-color="#5CA1FF"/>
<stop offset="1" stop-color="#D48EFF"/>
</linearGradient>
</defs>
</svg>
