<svg width="193" height="16" viewBox="0 0 193 16" fill="none" xmlns="http://www.w3.org/2000/svg">
<path d="M0.329888 0.599999H9.12989C10.5672 0.599999 11.6232 0.929999 12.2979 1.59C12.9726 2.23533 13.3099 3.22533 13.3099 4.56C13.3099 5.44 13.1192 6.15867 12.7379 6.716C12.3566 7.25867 11.8872 7.64 11.3299 7.86C12.5179 8.18267 13.3246 8.97467 13.7499 10.236C13.8966 10.6907 13.9699 11.2187 13.9699 11.82C13.9699 13.2573 13.6326 14.3133 12.9579 14.988C12.2832 15.6627 11.2272 16 9.78989 16H0.329888V0.599999ZM10.0099 11.16C10.0099 10.28 9.56989 9.84 8.68989 9.84H4.28989V12.92H8.68989C9.56989 12.92 10.0099 12.48 10.0099 11.6V11.16ZM9.34989 5C9.34989 4.12 8.90989 3.68 8.02989 3.68H4.28989V6.76H8.02989C8.90989 6.76 9.34989 6.32 9.34989 5.44V5ZM18.699 16H14.409L20.239 0.599999H24.639L30.469 16H26.179L25.189 13.25H19.689L18.699 16ZM20.679 10.39H24.199L22.439 5.22L20.679 10.39ZM37.5013 16H33.5413V3.68H28.9213V0.599999H42.1213V3.68H37.5013V16ZM51.1439 16H47.1839V3.68H42.5639V0.599999H55.7639V3.68H51.1439V16ZM61.2665 12.92H69.2965V16H57.3065V0.599999H61.2665V12.92ZM83.0516 16H70.8416V0.599999H83.0516V3.68H74.8016V6.65H81.2916V9.73H74.8016V12.92H83.0516V16ZM98.6622 16H90.7422V12.92H92.7222V3.68H90.7422V0.599999H98.6622V3.68H96.6822V12.92H98.6622V16ZM114.06 16H109.88L104.6 6.76V16H100.64V0.599999H104.82L110.1 9.84V0.599999H114.06V16ZM120.671 16H116.711V0.599999H128.921V3.68H120.671V7.31H127.161V10.39H120.671V16ZM137.721 16H129.801V12.92H131.781V3.68H129.801V0.599999H137.721V3.68H135.741V12.92H137.721V16ZM153.119 16H148.939L143.659 6.76V16H139.699V0.599999H143.879L149.159 9.84V0.599999H153.119V16ZM163.029 16H155.109V12.92H157.089V3.68H155.109V0.599999H163.029V3.68H161.049V12.92H163.029V16ZM172.488 16H168.528V3.68H163.908V0.599999H177.108V3.68H172.488V16ZM176.89 0.599999H181.07L184.7 8.08L188.33 0.599999H192.51L186.68 11.93V16H182.72V11.93L176.89 0.599999Z" fill="white"/>
</svg>
