<svg width="148" height="62" viewBox="0 0 148 62" fill="none" xmlns="http://www.w3.org/2000/svg">
<path d="M147 31C147 34.9338 145.101 38.7706 141.481 42.3561C137.857 45.9452 132.563 49.2235 125.94 51.998C112.698 57.5452 94.3349 61 74 61C53.6651 61 35.3023 57.5452 22.0605 51.998C15.4375 49.2235 10.1428 45.9452 6.51899 42.3561C2.89887 38.7706 1 34.9338 1 31C1 27.0662 2.89887 23.2294 6.51899 19.6439C10.1428 16.0548 15.4375 12.7765 22.0605 10.002C35.3023 4.45478 53.6651 1 74 1C94.3349 1 112.698 4.45478 125.94 10.002C132.563 12.7765 137.857 16.0548 141.481 19.6439C145.101 23.2294 147 27.0662 147 31Z" stroke="url(#paint0_linear_434_3710)" stroke-width="2"/>
<defs>
<linearGradient id="paint0_linear_434_3710" x1="74" y1="0" x2="74" y2="62" gradientUnits="userSpaceOnUse">
<stop stop-color="#4F7ABA" stop-opacity="0"/>
<stop offset="1" stop-color="#E18FFF"/>
</linearGradient>
</defs>
</svg>
